<!--?xml version="1.0" encoding="UTF-8"?-->
<svg width="64px" height="62px" viewBox="0 0 64 62" version="1.1" xmlns="http://www.w3.org/2000/svg" xmlns:xlink="http://www.w3.org/1999/xlink" style="">
    <!-- Generator: Sketch 49 (51002) - http://www.bohemiancoding.com/sketch -->
    <title>Page 1</title>
    <desc>Created with Sketch.</desc>
    <defs></defs>
    <g id="Secondary-&amp;-Tertiary-Pages" stroke="none" stroke-width="1" fill="none" fill-rule="evenodd" stroke-linecap="round" stroke-linejoin="round">
        <g id="Doing-What's-Right-Desktop" transform="translate(-193.000000, -5326.000000)" stroke-width="2">
            <g id="Animal-Welfare" transform="translate(100.000000, 5032.000000)">
                <g id="Copy" transform="translate(0.000000, 95.000000)">
                    <g id="Goals" transform="translate(60.000000, 200.000000)">
                        <g id="Brand">
                            <g id="Page-1" transform="translate(34.000000, 0.000000)">
                                <path d="M38.4344088,21.1807624 L61.7444083,21.1807624" id="Stroke-1" stroke="#00A1E0" class="qenAflrE_0"></path>
                                <path d="M43.4401326,30.2080773 L49.5101328,30.2080773" id="Stroke-3" stroke="#00A1E0" class="qenAflrE_1"></path>
                                <path d="M43.4401326,37.8557569 L49.5101328,37.8557569" id="Stroke-4" stroke="#00A1E0" class="qenAflrE_2"></path>
                                <path d="M43.4401326,45.5034033 L49.5101328,45.5034033" id="Stroke-5" stroke="#00A1E0" class="qenAflrE_3"></path>
                                <g id="Group-20" transform="translate(0.000000, 0.079227)">
                                    <path d="M50.0887293,58.0570608 C46.4167956,58.0570608 43.44,55.0802652 43.44,51.4083315 L43.44,21.1013702 L56.7374586,21.1013702 L56.7374586,51.4083315 C56.7374586,55.0802652 53.760663,58.0570608 50.0887293,58.0570608 Z" id="Stroke-6" stroke="#00A1E0" class="qenAflrE_4"></path>
                                    <path d="M48.5720884,11.6089061 C48.5720884,13.9850387 46.6457901,15.911337 44.2696575,15.911337 C41.8935249,15.911337 39.9672265,13.9850387 39.9672265,11.6089061 C39.9672265,9.23277348 41.8935249,7.30647514 44.2696575,7.30647514 C46.6457901,7.30647514 48.5720884,9.23277348 48.5720884,11.6089061 Z" id="Stroke-8" stroke="#003DA7" class="qenAflrE_5"></path>
                                    <path d="M58.8703425,13.4455359 C58.8703425,15.0091823 57.6030497,16.2764751 56.0394033,16.2764751 C54.4757569,16.2764751 53.2084641,15.0091823 53.2084641,13.4455359 C53.2084641,11.8818895 54.4757569,10.6145967 56.0394033,10.6145967 C57.6030497,10.6145967 58.8703425,11.8818895 58.8703425,13.4455359 Z" id="Stroke-10" stroke="#003DA7" class="qenAflrE_6"></path>
                                    <path d="M56.0394033,3.08333702 C56.0394033,4.64698343 54.771779,5.91427624 53.2084641,5.91427624 C51.6448177,5.91427624 50.3771934,4.64698343 50.3771934,3.08333702 C50.3771934,1.51969061 51.6448177,0.25239779 53.2084641,0.25239779 C54.771779,0.25239779 56.0394033,1.51969061 56.0394033,3.08333702 Z" id="Stroke-12" stroke="#003DA7" class="qenAflrE_7"></path>
                                    <path d="M2.0060884,35.6897569 L33.5860902,35.6897569" id="Stroke-16" stroke="#003DA7" class="qenAflrE_8"></path>
                                    <path d="M7.27014365,7.30647514 L28.6401445,7.30647514" id="Stroke-14" stroke="#B41A83" class="qenAflrE_9"></path>
                                    <path d="M24.1012707,25.5252928 L24.1012707,7.30650829 L11.8085635,7.30650829 L11.8085635,25.5252928 C5.10646409,28.0200994 0.331325967,34.4739116 0.331325967,42.0451823 C0.331325967,51.778442 8.2218232,59.6686077 17.9547514,59.6686077 C27.688011,59.6686077 35.5785083,51.778442 35.5785083,42.0451823 C35.5785083,34.4739116 30.8033702,28.0200994 24.1012707,25.5252928 Z" id="Stroke-18" stroke="#B41A83" class="qenAflrE_10"></path>
                                </g>
                            </g>
                        </g>
                    </g>
                </g>
            </g>
        </g>
    </g>
<style data-made-with="vivus-instant">.qenAflrE_0{stroke-dasharray:24 26;stroke-dashoffset:25;animation:qenAflrE_draw 174ms linear 0ms forwards;}.qenAflrE_1{stroke-dasharray:7 9;stroke-dashoffset:8;animation:qenAflrE_draw 55ms linear 174ms forwards;}.qenAflrE_2{stroke-dasharray:7 9;stroke-dashoffset:8;animation:qenAflrE_draw 55ms linear 230ms forwards;}.qenAflrE_3{stroke-dasharray:7 9;stroke-dashoffset:8;animation:qenAflrE_draw 55ms linear 285ms forwards;}.qenAflrE_4{stroke-dasharray:95 97;stroke-dashoffset:96;animation:qenAflrE_draw 669ms linear 341ms forwards;}.qenAflrE_5{stroke-dasharray:28 30;stroke-dashoffset:29;animation:qenAflrE_draw 202ms linear 1010ms forwards;}.qenAflrE_6{stroke-dasharray:18 20;stroke-dashoffset:19;animation:qenAflrE_draw 132ms linear 1212ms forwards;}.qenAflrE_7{stroke-dasharray:18 20;stroke-dashoffset:19;animation:qenAflrE_draw 132ms linear 1345ms forwards;}.qenAflrE_8{stroke-dasharray:32 34;stroke-dashoffset:33;animation:qenAflrE_draw 230ms linear 1477ms forwards;}.qenAflrE_9{stroke-dasharray:22 24;stroke-dashoffset:23;animation:qenAflrE_draw 160ms linear 1707ms forwards;}.qenAflrE_10{stroke-dasharray:147 149;stroke-dashoffset:148;animation:qenAflrE_draw 1031ms linear 1868ms forwards;}@keyframes qenAflrE_draw{100%{stroke-dashoffset:0;}}@keyframes qenAflrE_fade{0%{stroke-opacity:1;}94.36619718309859%{stroke-opacity:1;}100%{stroke-opacity:0;}}</style></svg>