<!--?xml version="1.0" encoding="UTF-8"?-->
<svg width="81px" height="82px" viewBox="0 0 81 82" version="1.1" xmlns="http://www.w3.org/2000/svg" xmlns:xlink="http://www.w3.org/1999/xlink" style="">
    <!-- Generator: Sketch 49 (51002) - http://www.bohemiancoding.com/sketch -->
    <title>Page 1</title>
    <desc>Created with Sketch.</desc>
    <defs></defs>
    <g id="Secondary-&amp;-Tertiary-Pages" stroke="none" stroke-width="1" fill="none" fill-rule="evenodd" stroke-linecap="round" stroke-linejoin="round">
        <g id="Community-Impact-Desktop" transform="translate(-530.000000, -1115.000000)" stroke-width="2">
            <g id="Jump-Links" transform="translate(365.000000, 1056.000000)">
                <g id="Categories" transform="translate(145.000000, 60.000000)">
                    <g id="1">
                        <g id="Page-1" transform="translate(21.000000, 0.000000)">
                            <path d="M49.3016078,60.906902 L54.3772941,73.1002353 C55.3788627,75.5057255 54.2408235,78.2680784 51.8349412,79.2692549 C49.429451,80.2708235 46.6674902,79.1323922 45.6663137,76.726902 L40.5898431,64.5335686" id="Stroke-1" stroke="#EE7624" class="qMxcLMZL_0"></path>
                            <path d="M52.4672157,43.9577647 L63.0891765,69.473451 C64.0907451,71.8793333 62.9523137,74.6412941 60.5468235,75.6428627 C58.1413333,76.6440392 55.3789804,75.506 54.3774118,73.1001176 L49.3017255,60.9067843" id="Stroke-3" stroke="#EE7624" class="qMxcLMZL_1"></path>
                            <path id="Stroke-5" stroke="#EE7624" d="M45.8576078,25.3291373L31.1862353,19.2824706L23.1587843,0.000117647059" class="qMxcLMZL_2"></path>
                            <path id="Stroke-7" stroke="#EE7624" d="M8.65823529,40.8150196L11.1641176,30.600902L2.07823529,8.77580392" class="qMxcLMZL_3"></path>
                            <path d="M31.8782353,68.1601569 L33.1715686,71.2664314 C34.1731373,73.6723137 33.0343137,76.4342745 30.6288235,77.435451 L30.6288235,77.4358431 C28.2233333,78.4370196 25.4613725,77.2985882 24.4598039,74.893098 L23.3005882,71.8562353" id="Stroke-13" stroke="#EE7624" class="qMxcLMZL_4"></path>
                            <path d="M40.5899216,64.5335294 L43.7746275,72.1833333 C44.7761961,74.5888235 43.6373725,77.3511765 41.2322745,78.3523529 C38.8263922,79.3539216 36.0644314,78.2154902 35.0628627,75.81 L31.8781569,68.1601961" id="Stroke-15" stroke="#EE7624" class="qMxcLMZL_5"></path>
                            <path d="M16.7388235,47.5712549 L5.67960784,52.1751765 C3.58823529,53.0457647 1.18705882,52.0559608 0.316078431,49.9645882 C-0.554901961,47.8732157 0.435294118,45.4716471 2.52666667,44.6010588 L13.5858824,39.9971373 C15.6772549,39.126549 18.0788235,40.1159608 18.9494118,42.2077255 C19.82,44.299098 18.8301961,46.7006667 16.7388235,47.5712549 Z" id="Stroke-9" stroke="#003DA7" class="qMxcLMZL_6"></path>
                            <path d="M71.1900392,21.0741569 L53.4512157,28.4588627 L40.2680784,23.0255294 L20.5386667,31.2388627 C22.5414118,36.0502353 28.0653333,38.3267059 32.877098,36.3239608 L39.3516078,33.6286667 L50.0163137,38.0239608 L55.7496471,51.796902 L57.8041569,56.7016078 L60.9708235,46.522 L78.7096471,39.1372941" id="Stroke-11" stroke="#003DA7" class="qMxcLMZL_7"></path>
                            <path d="M19.8952157,55.1534902 L8.83639216,59.7574118 C6.74462745,60.628 4.34345098,59.6381961 3.47247059,57.5468235 C2.60188235,55.455451 3.59168627,53.0538824 5.68305882,52.1832941 L16.7422745,47.5793725 C18.8336471,46.7087843 21.2352157,47.6981961 22.1058039,49.7899608 C22.9763922,51.8813333 21.9869804,54.282902 19.8952157,55.1534902 Z" id="Stroke-17" stroke="#003DA7" class="qMxcLMZL_8"></path>
                            <path d="M23.0742353,62.7896863 L15.4291373,65.9724314 C13.3377647,66.8430196 10.9361961,65.8532157 10.0656078,63.7618431 C9.19462745,61.6700784 10.1844314,59.268902 12.2761961,58.3983137 L19.9212941,55.2155686 C22.0126667,54.3449804 24.4138431,55.3343922 25.2848235,57.4261569 C26.1554118,59.5175294 25.1656078,61.919098 23.0742353,62.7896863 Z" id="Stroke-19" stroke="#003DA7" class="qMxcLMZL_9"></path>
                            <path d="M25.9104706,70.387098 L22.6253725,71.754549 C20.5336078,72.6255294 18.1324314,71.6357255 17.261451,69.5439608 C16.3912549,67.4525882 17.3806667,65.0514118 19.4720392,64.1804314 L22.7575294,62.8129804 C24.848902,61.9423922 27.2504706,62.9318039 28.1210588,65.0235686 C28.9916471,67.1149412 28.0018431,69.5165098 25.9104706,70.387098 Z" id="Stroke-21" stroke="#003DA7" class="qMxcLMZL_10"></path>
                        </g>
                    </g>
                </g>
            </g>
        </g>
    </g>
<style data-made-with="vivus-instant">.qMxcLMZL_0{stroke-dasharray:42 44;stroke-dashoffset:43;animation:qMxcLMZL_draw 226ms linear 0ms forwards;}.qMxcLMZL_1{stroke-dasharray:56 58;stroke-dashoffset:57;animation:qMxcLMZL_draw 300ms linear 226ms forwards;}.qMxcLMZL_2{stroke-dasharray:37 39;stroke-dashoffset:38;animation:qMxcLMZL_draw 200ms linear 527ms forwards;}.qMxcLMZL_3{stroke-dasharray:35 37;stroke-dashoffset:36;animation:qMxcLMZL_draw 189ms linear 727ms forwards;}.qMxcLMZL_4{stroke-dasharray:22 24;stroke-dashoffset:23;animation:qMxcLMZL_draw 121ms linear 917ms forwards;}.qMxcLMZL_5{stroke-dasharray:32 34;stroke-dashoffset:33;animation:qMxcLMZL_draw 174ms linear 1038ms forwards;}.qMxcLMZL_6{stroke-dasharray:50 52;stroke-dashoffset:51;animation:qMxcLMZL_draw 268ms linear 1212ms forwards;}.qMxcLMZL_7{stroke-dasharray:139 141;stroke-dashoffset:140;animation:qMxcLMZL_draw 738ms linear 1481ms forwards;}.qMxcLMZL_8{stroke-dasharray:50 52;stroke-dashoffset:51;animation:qMxcLMZL_draw 268ms linear 2219ms forwards;}.qMxcLMZL_9{stroke-dasharray:43 45;stroke-dashoffset:44;animation:qMxcLMZL_draw 232ms linear 2488ms forwards;}.qMxcLMZL_10{stroke-dasharray:33 35;stroke-dashoffset:34;animation:qMxcLMZL_draw 179ms linear 2720ms forwards;}@keyframes qMxcLMZL_draw{100%{stroke-dashoffset:0;}}@keyframes qMxcLMZL_fade{0%{stroke-opacity:1;}94.36619718309859%{stroke-opacity:1;}100%{stroke-opacity:0;}}</style></svg>