<!--?xml version="1.0" encoding="UTF-8"?-->
<svg width="101px" height="82px" viewBox="0 0 101 82" version="1.1" xmlns="http://www.w3.org/2000/svg" xmlns:xlink="http://www.w3.org/1999/xlink" style="">
    <!-- Generator: Sketch 49 (51002) - http://www.bohemiancoding.com/sketch -->
    <title>Page 1</title>
    <desc>Created with Sketch.</desc>
    <defs></defs>
    <g id="Secondary-&amp;-Tertiary-Pages" stroke="none" stroke-width="1" fill="none" fill-rule="evenodd" stroke-linecap="round" stroke-linejoin="round">
        <g id="Diversity-&amp;-Inclusion-Desktop" transform="translate(-520.000000, -1686.000000)" stroke-width="2">
            <g id="Jump-Links" transform="translate(365.000000, 1626.000000)">
                <g id="Categories" transform="translate(145.000000, 61.000000)">
                    <g id="1">
                        <g id="Page-1" transform="translate(11.000000, 0.000000)">
                            <path d="M18.9461538,54.3661538 C8.69538462,54.3661538 0.384615385,46.0553846 0.384615385,35.8046154 C0.384615385,25.5538462 8.69538462,17.2430769 18.9461538,17.2430769 L31.9707692,17.2430769 L32.1107692,54.3984615 L18.9461538,54.3661538 Z M70.4784615,70.7923077 L70.4784615,0.384615385 L70.4784615,70.7923077 Z M32.36,48.9169231 L69.86,65.1276923 L32.36,48.9169231 Z M69.6123077,6.04923077 L32.1123077,22.3461538 L69.6123077,6.04923077 Z M28.5450769,54.9196923 L28.5450769,79.7796923 L17.2712308,79.7796923 L17.2712308,54.9196923 L28.5450769,54.9196923 Z" id="Stroke-1" stroke="#003DA7" class="EZGhyMXY_0"></path>
                            <path d="M82.1027692,35.0330769 L98.1273846,35.0330769 M82.1735385,26.2792308 L98.1273846,21.1238462 M82.1735385,43.4392308 L98.1273846,48.5946154" id="Stroke-3" stroke="#F63440" class="EZGhyMXY_1"></path>
                        </g>
                    </g>
                </g>
            </g>
        </g>
    </g>
<style data-made-with="vivus-instant">.EZGhyMXY_0{stroke-dasharray:499 501;stroke-dashoffset:500;animation:EZGhyMXY_draw 2631ms linear 0ms forwards;}.EZGhyMXY_1{stroke-dasharray:50 52;stroke-dashoffset:51;animation:EZGhyMXY_draw 268ms linear 2631ms forwards;}@keyframes EZGhyMXY_draw{100%{stroke-dashoffset:0;}}@keyframes EZGhyMXY_fade{0%{stroke-opacity:1;}94.36619718309859%{stroke-opacity:1;}100%{stroke-opacity:0;}}</style></svg>