<?xml version="1.0" encoding="UTF-8"?>
<svg width="37px" height="30px" viewBox="0 0 37 30" version="1.1" xmlns="http://www.w3.org/2000/svg" xmlns:xlink="http://www.w3.org/1999/xlink">
    <!-- Generator: Sketch 49 (51002) - http://www.bohemiancoding.com/sketch -->
    <title>Our Impact Icon</title>
    <desc>Created with Sketch.</desc>
    <defs></defs>
    <g id="Secondary-&amp;-Tertiary-Pages" stroke="none" stroke-width="1" fill="none" fill-rule="evenodd" stroke-linecap="round" stroke-linejoin="round">
        <g id="Doing-What's-Right-Desktop" transform="translate(-622.000000, -505.000000)" stroke-width="1.5">
            <g id="Icon" transform="translate(610.000000, 490.000000)">
                <g id="Our-Impact-Icon" transform="translate(13.000000, 16.000000)">
                    <path d="M21.5032925,16 L13.2209504,7.6095137 C11.5930165,5.96032359 11.5930165,3.28678259 13.2209504,1.63833369 C14.8481526,-0.0108564128 18.2061861,-0.706704454 19.83412,0.942485654 L21.5032925,2.66594391 L23.16588,0.949156536 C24.7938139,-0.700033572 28.1518474,-0.00418553148 29.7790496,1.64500458 C31.4069835,3.29345348 31.4069835,5.96699447 29.7790496,7.61618458 L21.5032925,16 Z" id="Stroke-1" stroke="#F63440"></path>
                    <path d="M0,17.9387433 L6.37046992,17.9387433 C6.37046992,17.9387433 10.3614057,16.9041557 11.9473367,17.1576703 C14.1090499,17.5032251 19.4767459,20.3738877 19.4767459,20.3738877 C19.8626821,20.5161749 20.1809323,20.8072539 20.3499371,21.1727288 C20.7035017,21.9370145 20.3482554,22.8370829 19.557885,23.1789788 C19.180357,23.3419993 18.7418695,23.3541954 18.3563537,23.2119081 L12.4865919,21.0446703 M20.5609828,21.6243892 L32.7634011,17.1556456 C33.9558418,16.8389434 34.4445965,17.0577821 34.6938996,17.3476415 C34.9440434,17.6379075 35.0478846,18.016798 34.9793578,18.3875579 C34.8973779,18.8314941 34.6938996,19.2208749 33.9558418,19.9000046 C26.9263625,24.6486822 22.3713017,27.2287784 20.2906593,27.6402933 C19.1084369,28.0880314 16.1043029,28.1393247 14.2518927,27.6720031 C13.0169526,27.3604553 10.3288522,26.071333 6.18759165,23.8046361 C6.01017871,23.7643891 5.70622242,23.7460951 5.57337292,23.7460951 L0.714696685,23.7460951" id="Stroke-3" stroke="#EE7624"></path>
                </g>
            </g>
        </g>
    </g>
</svg>