<svg id="Layer_1" data-name="Layer 1" xmlns="http://www.w3.org/2000/svg" xmlns:xlink="http://www.w3.org/1999/xlink" viewBox="0 0 83.69 83.84"><defs><clipPath id="clip-path" transform="translate(-254.87 -118.31)"><path d="M269.09,172.71V187a10.14,10.14,0,0,0,10.14,10.14h12.45A10.13,10.13,0,0,0,301.81,187v-14.3Z" fill="none"/></clipPath><clipPath id="clip-path-2" transform="translate(-254.87 -118.31)"><rect x="273.62" y="163.4" width="23.67" height="9.31" fill="none"/></clipPath></defs><title>Untitled-1</title><path d="M324.43,169.28a32.67,32.67,0,0,0-1.85-11.51,3.23,3.23,0,0,1,1.38-4l.14-.08a3.21,3.21,0,0,1,4.57,1.66A38.81,38.81,0,0,1,331,169.23a3.29,3.29,0,1,1-6.57.05Z" transform="translate(-254.87 -118.31)" fill="none" stroke="#ee7624" stroke-linecap="round" stroke-linejoin="round" stroke-width="2"/><path d="M317.48,136.27V133H295.19v3.24s-16.41,18.35-5.13,58.43a4.09,4.09,0,0,0,3.93,3h35.65a4.08,4.08,0,0,0,3.92-2.95C348.34,142.91,317.48,136.27,317.48,136.27Z" transform="translate(-254.87 -118.31)" fill="none" stroke="#ee7624" stroke-linecap="round" stroke-linejoin="round" stroke-width="2"/><polygon points="42.75 10.73 42.75 1 60.18 1 60.18 10.73 55.46 10.73 42.75 10.73" fill="none" stroke="#003da7" stroke-linecap="round" stroke-linejoin="round" stroke-width="2"/><polygon points="20.68 29.25 8.13 29.25 5.62 20.47 23.19 20.47 20.68 29.25" fill="none" stroke="#003da7" stroke-linecap="round" stroke-linejoin="round" stroke-width="2"/><rect x="12.18" y="29.25" width="4.46" height="16.96" fill="none" stroke="#003da7" stroke-linecap="round" stroke-linejoin="round" stroke-width="2"/><path d="M274.74,196H263.82V168.74a4.22,4.22,0,0,1,4.22-4.22h2.49a4.22,4.22,0,0,1,4.22,4.22Z" transform="translate(-254.87 -118.31)" fill="none" stroke="#003da7" stroke-linecap="round" stroke-linejoin="round" stroke-width="2"/><rect x="1" y="15.94" width="26.82" height="4.53" fill="none" stroke="#00a1e0" stroke-linecap="round" stroke-linejoin="round" stroke-width="2"/><g clip-path="url(#clip-path)"><rect x="9.22" y="49.4" width="42.72" height="34.44" fill="#fefefe"/></g><path d="M291.68,197.15H279.23A10.13,10.13,0,0,1,269.09,187v-14.3h32.72V187A10.13,10.13,0,0,1,291.68,197.15Z" transform="translate(-254.87 -118.31)" fill="none" stroke="#b41a83" stroke-linecap="round" stroke-linejoin="round" stroke-width="2"/><g clip-path="url(#clip-path-2)"><rect x="13.75" y="40.09" width="33.67" height="19.31" fill="#fefefe"/></g><rect x="18.75" y="45.09" width="23.67" height="9.31" fill="none" stroke="#b41a83" stroke-linecap="round" stroke-linejoin="round" stroke-width="2"/></svg>